<?xml version="1.0" standalone="no"?>
<!DOCTYPE svg PUBLIC "-//W3C//DTD SVG 20010904//EN"
 "http://www.w3.org/TR/2001/REC-SVG-20010904/DTD/svg10.dtd">
<svg version="1.0" xmlns="http://www.w3.org/2000/svg"
 width="700.000000pt" height="700.000000pt" viewBox="0 0 700.000000 700.000000"
 preserveAspectRatio="xMidYMid meet">
<metadata>
Created by potrace 1.14, written by Peter Selinger 2001-2017
</metadata>
<g transform="translate(0.000000,700.000000) scale(0.100000,-0.100000)"
fill="#000000" stroke="none">
<path d="M3219 6826 c-2 -2 -33 -7 -69 -10 -91 -10 -194 -25 -270 -41 -14 -3
-47 -10 -75 -15 -74 -15 -225 -56 -350 -96 -388 -124 -790 -348 -1115 -622
-100 -83 -340 -326 -427 -432 -251 -304 -457 -674 -582 -1048 -36 -108 -91
-310 -105 -387 -53 -283 -61 -374 -61 -650 0 -200 7 -338 20 -419 6 -40 14
-90 21 -141 3 -22 10 -56 14 -75 5 -19 12 -49 15 -67 11 -67 66 -265 101 -370
283 -833 889 -1523 1683 -1918 302 -150 620 -252 1001 -320 8 -1 42 -6 75 -10
32 -4 67 -9 77 -10 34 -7 292 -18 402 -18 99 1 261 9 326 18 14 2 48 6 75 9
96 12 281 47 395 76 738 184 1407 631 1875 1252 195 260 370 594 481 921 35
103 91 305 100 367 3 19 7 37 9 40 2 3 6 26 10 50 3 25 8 52 10 60 2 8 7 38
10 65 3 28 7 70 10 95 19 171 24 464 12 640 -32 449 -194 969 -429 1373 -42
73 -167 268 -177 277 -4 3 -33 41 -66 85 -118 158 -329 383 -493 525 -410 355
-1022 648 -1552 744 -136 24 -142 25 -195 32 -27 3 -61 8 -75 11 -30 6 -674
15 -681 9z m565 -190 c66 -4 122 -9 125 -11 3 -2 31 -6 63 -9 233 -25 595
-127 846 -239 961 -430 1638 -1276 1837 -2297 38 -193 39 -207 39 -535 1 -181
-2 -366 -6 -410 -20 -223 -98 -530 -199 -784 -53 -132 -167 -364 -220 -446
-109 -169 -151 -230 -217 -315 -473 -608 -1137 -1017 -1887 -1160 -258 -49
-376 -59 -670 -55 -143 1 -273 5 -290 8 -16 3 -52 8 -80 11 -27 4 -61 8 -75
10 -14 3 -38 7 -55 9 -486 72 -1055 326 -1467 656 -109 87 -388 361 -468 461
-25 30 -51 61 -58 69 -28 29 -191 280 -249 381 -220 391 -346 786 -390 1235
-15 151 -6 684 12 715 1 3 6 32 10 65 3 32 8 62 10 65 2 3 6 26 10 50 28 197
145 541 267 785 200 402 458 726 824 1035 54 46 280 210 288 210 3 0 41 23 85
50 334 207 793 370 1200 426 25 3 55 7 67 9 11 2 65 6 120 10 54 4 100 8 101
9 5 4 316 -2 427 -8z"/>
<path d="M3377 5804 c-1 -1 -46 -5 -99 -9 -53 -3 -106 -8 -117 -10 -11 -2 -44
-6 -73 -9 -29 -4 -62 -8 -73 -10 -11 -2 -40 -7 -65 -11 -70 -11 -78 -13 -164
-35 -406 -104 -762 -288 -1046 -539 -314 -278 -549 -657 -626 -1011 -43 -201
-51 -416 -20 -553 35 -155 135 -349 239 -463 140 -153 317 -172 404 -42 61 91
18 166 -150 266 -214 126 -321 309 -320 547 0 131 39 339 78 417 8 17 15 35
15 39 0 19 82 180 134 262 238 378 587 657 1051 839 105 41 286 91 370 103 28
4 59 9 70 11 96 18 428 25 565 12 218 -22 403 -80 570 -180 81 -49 204 -154
302 -258 l105 -111 76 21 c103 28 164 39 375 66 23 3 42 10 42 15 0 15 -208
220 -275 271 -234 177 -559 307 -860 343 -27 3 -66 7 -85 10 -90 11 -416 26
-423 19z"/>
<path d="M3356 5333 c-4 -4 -149 -34 -182 -37 -16 -2 -39 -6 -50 -9 -10 -4
-35 -9 -54 -12 -19 -3 -46 -7 -60 -10 -29 -5 -90 -14 -139 -21 -19 -2 -46 -6
-60 -8 -14 -3 -50 -7 -79 -11 -64 -8 -89 -28 -98 -77 l-6 -38 55 0 c69 0 101
-12 123 -45 33 -50 27 -81 -126 -680 -50 -198 -93 -367 -95 -375 -49 -199
-232 -849 -274 -970 -132 -387 -229 -552 -345 -584 -54 -15 -99 -23 -180 -31
-112 -10 -131 -16 -153 -43 -24 -28 -48 -80 -42 -87 2 -2 186 -6 409 -10 390
-5 483 -8 635 -19 248 -18 323 -21 520 -20 229 0 340 13 553 65 91 22 273 79
325 103 18 8 75 33 127 56 134 59 189 92 317 187 256 191 502 486 642 771 77
156 122 289 162 477 11 55 24 114 27 130 4 17 7 122 7 235 0 194 -1 208 -23
252 -17 34 -39 58 -80 85 l-57 38 -130 0 c-137 0 -146 -1 -210 -28 -78 -33
-77 -30 -59 -167 5 -36 8 -175 7 -310 -1 -223 -3 -255 -26 -361 -78 -351 -232
-646 -460 -877 -337 -343 -744 -497 -1307 -496 -110 1 -308 12 -320 18 -3 2
-30 7 -60 10 -91 11 -91 15 -18 162 96 194 119 251 205 494 70 198 245 806
269 935 19 104 160 670 209 840 25 88 70 231 100 317 l54 158 -25 -2 c-14 -2
-26 -4 -28 -5z"/>
<path d="M4949 4976 c-2 -2 -33 -6 -69 -10 -117 -11 -303 -68 -431 -131 -117
-59 -252 -157 -350 -255 -111 -110 -168 -188 -233 -317 -88 -175 -104 -241
-101 -425 2 -116 5 -143 29 -212 66 -186 139 -298 312 -473 l87 -88 39 45
c100 116 245 369 228 399 -5 9 -42 56 -83 104 -153 183 -202 337 -174 545 42
314 339 594 687 648 66 10 273 7 317 -5 101 -27 222 -141 271 -254 33 -77 42
-219 26 -414 -4 -49 -8 -126 -8 -173 l-1 -85 30 -5 c49 -9 86 0 95 24 4 11 11
48 15 81 12 105 15 128 35 245 10 63 22 138 25 165 7 56 56 265 84 365 38 130
38 127 -11 141 -24 6 -56 13 -73 15 -16 3 -39 7 -51 9 -30 7 -223 36 -269 41
-22 2 -51 7 -65 10 -29 7 -355 16 -361 10z"/>
<path d="M4845 2753 c-93 -96 -171 -178 -173 -183 -2 -5 17 -48 41 -97 69
-137 76 -166 81 -306 8 -215 -73 -404 -252 -586 -193 -195 -399 -303 -645
-338 -67 -10 -279 -10 -337 -1 -136 23 -281 112 -345 212 -35 56 -77 159 -125
311 -17 55 -47 123 -66 151 -84 124 -248 118 -347 -12 -45 -59 -60 -108 -60
-190 1 -248 292 -516 677 -624 103 -29 151 -33 331 -34 169 0 271 8 365 28
438 93 829 324 1044 615 60 83 155 273 192 386 27 84 29 101 29 245 0 123 -4
166 -19 209 -40 121 -154 330 -202 373 -18 15 -26 9 -189 -159z"/>
</g>
</svg>
